<svg xmlns="http://www.w3.org/2000/svg" width="683.598" height="248.583" viewBox="0 0 683.598 248.583"><defs><style>.a,.i,.j,.n{fill:none;}.a,.c,.e,.i,.j{stroke:#000;}.a,.c{stroke-width:1.2px;}.b,.c,.e,.k{fill:#fff;}.d{fill:#0080ff;}.e,.j{stroke-width:1.4px;}.f{opacity:0.54;}.g{fill:#00d9b7;}.h{fill:#3fbdf1;}.i{stroke-miterlimit:10;stroke-width:1.5px;}.l,.m{stroke:none;}.m{fill:#000;}</style></defs><g transform="translate(-326 -219)"><line class="a" x2="683.598" transform="translate(326 466.983)"/><g class="b" transform="translate(11976.941 2855.999)"><path class="l" d="M -11203.115234375 -2389.0185546875 L -11271.83203125 -2389.0185546875 L -11310.072265625 -2389.0185546875 L -11378.7890625 -2389.0185546875 L -11378.7890625 -2397.378173828125 L -11310.072265625 -2397.378173828125 L -11309.47265625 -2397.378173828125 L -11309.47265625 -2397.978271484375 L -11309.47265625 -2455.343505859375 L -11309.47265625 -2455.943603515625 L -11310.072265625 -2455.943603515625 L -11431.14453125 -2455.943603515625 C -11435.2255859375 -2455.943603515625 -11438.5458984375 -2459.263671875 -11438.5458984375 -2463.3447265625 L -11438.5458984375 -2629.001220703125 C -11438.5458984375 -2633.08056640625 -11435.2255859375 -2636.399169921875 -11431.14453125 -2636.399169921875 L -11150.759765625 -2636.399169921875 C -11146.6787109375 -2636.399169921875 -11143.3583984375 -2633.08056640625 -11143.3583984375 -2629.001220703125 L -11143.3583984375 -2463.3447265625 C -11143.3583984375 -2459.263671875 -11146.6787109375 -2455.943603515625 -11150.759765625 -2455.943603515625 L -11271.83203125 -2455.943603515625 L -11272.431640625 -2455.943603515625 L -11272.431640625 -2455.343505859375 L -11272.431640625 -2397.978271484375 L -11272.431640625 -2397.378173828125 L -11271.83203125 -2397.378173828125 L -11203.115234375 -2397.378173828125 L -11203.115234375 -2389.0185546875 Z"/><path class="m" d="M -11203.7158203125 -2389.618408203125 L -11203.7158203125 -2396.7783203125 L -11273.0322265625 -2396.7783203125 L -11273.0322265625 -2456.54345703125 L -11150.759765625 -2456.54345703125 C -11147.009765625 -2456.54345703125 -11143.958984375 -2459.594482421875 -11143.958984375 -2463.3447265625 L -11143.958984375 -2629.001220703125 C -11143.958984375 -2632.749755859375 -11147.009765625 -2635.79931640625 -11150.759765625 -2635.79931640625 L -11431.14453125 -2635.79931640625 C -11434.89453125 -2635.79931640625 -11437.9453125 -2632.749755859375 -11437.9453125 -2629.001220703125 L -11437.9453125 -2463.3447265625 C -11437.9453125 -2459.594482421875 -11434.89453125 -2456.54345703125 -11431.14453125 -2456.54345703125 L -11308.8720703125 -2456.54345703125 L -11308.8720703125 -2396.7783203125 L -11378.1884765625 -2396.7783203125 L -11378.1884765625 -2389.618408203125 L -11203.7158203125 -2389.618408203125 M -11202.515625 -2388.41845703125 L -11379.388671875 -2388.41845703125 L -11379.388671875 -2397.978271484375 L -11310.072265625 -2397.978271484375 L -11310.072265625 -2455.343505859375 L -11431.14453125 -2455.343505859375 C -11435.5625 -2455.343505859375 -11439.1455078125 -2458.926513671875 -11439.1455078125 -2463.3447265625 L -11439.1455078125 -2629.001220703125 C -11439.1455078125 -2633.41943359375 -11435.5625 -2636.999267578125 -11431.14453125 -2636.999267578125 L -11150.759765625 -2636.999267578125 C -11146.341796875 -2636.999267578125 -11142.7587890625 -2633.41943359375 -11142.7587890625 -2629.001220703125 L -11142.7587890625 -2463.3447265625 C -11142.7587890625 -2458.926513671875 -11146.341796875 -2455.343505859375 -11150.759765625 -2455.343505859375 L -11271.83203125 -2455.343505859375 L -11271.83203125 -2397.978271484375 L -11202.515625 -2397.978271484375 L -11202.515625 -2388.41845703125 Z"/></g><g class="c" transform="translate(543.773 224.975)"><rect class="l" width="284.434" height="169.704" rx="8"/><rect class="n" x="0.6" y="0.6" width="283.234" height="168.504" rx="7.4"/></g><g transform="translate(796.911 297.351)"><g class="d" transform="translate(1.36 -9)"><path class="l" d="M 48.88747406005859 141.5220184326172 C 47.74435043334961 141.2225494384766 40.71091079711914 139.2652740478516 32.51627349853516 134.4663391113281 C 27.29074668884277 131.4061584472656 22.62123680114746 127.8054275512695 18.63745498657227 123.7641296386719 C 13.66658210754395 118.7215118408203 9.754018783569336 112.9729309082031 7.008418560028076 106.6780776977539 C 4.250400543212891 100.3546981811523 2.204455137252808 92.41644287109375 0.9274187088012695 83.08382415771484 C -0.09698130190372467 75.59733581542969 -0.6308358311653137 67.206298828125 -0.6593267321586609 58.14376831054688 C -0.7018906474113464 44.59616851806641 0.4137257039546967 33.55952453613281 0.6977723240852356 30.97585487365723 C 3.042732238769531 30.79217338562012 12.05886936187744 29.95891761779785 21.69394683837891 27.40435028076172 C 35.98506164550781 23.61534118652344 45.13842391967773 17.95039749145508 48.93331146240234 10.55398178100586 C 53.41921234130859 18.21076393127441 62.95826721191406 23.95965385437012 77.31742095947266 27.65287780761719 C 86.95196533203125 30.13091278076172 95.79670715332031 30.8342342376709 98.12619781494141 30.98442649841309 C 98.42438507080078 33.57887268066406 99.59295654296875 44.62187957763672 99.57774353027344 58.16329574584961 C 99.56756591796875 67.22206115722656 99.03743743896484 75.6094970703125 98.00211334228516 83.09262084960938 C 96.711669921875 92.41947937011719 94.629638671875 100.3530807495117 91.81381988525391 106.6730422973633 C 89.00572967529297 112.9756622314453 84.99529266357422 118.7306976318359 79.89392852783203 123.7782821655273 C 75.80665588378906 127.8224639892578 71.01338195800781 131.4249725341797 65.64727020263672 134.4857482910156 C 57.24040222167969 139.2809448242188 50.04696273803711 141.2267303466797 48.88747406005859 141.5220184326172 Z"/><path class="m" d="M 48.9684944152832 11.93594360351563 C 44.77548599243164 18.99665832519531 35.67932510375977 24.42057800292969 21.87334442138672 28.08098602294922 C 12.73413848876953 30.50406646728516 4.356269836425781 31.37511444091797 1.331695556640625 31.62885284423828 C 0.9770660400390625 35.00316619873047 -0.00091552734375 45.49237060546875 0.04077911376953125 58.17675018310547 C 0.07045745849609375 67.20264434814453 0.6029815673828125 75.55706024169922 1.623565673828125 83.0079345703125 C 2.892021179199219 92.26851654052734 4.91961669921875 100.1381378173828 7.650054931640625 106.3982238769531 C 10.3575439453125 112.6057281494141 14.21532440185547 118.2764053344727 19.11627197265625 123.2527313232422 C 23.05110931396484 127.2480926513672 27.66523742675781 130.8098754882813 32.83049011230469 133.839111328125 C 40.62527847290039 138.4104919433594 47.36376190185547 140.3851776123047 48.89027404785156 140.7983703613281 C 50.43788528442383 140.3918609619141 57.30518341064453 138.4381256103516 65.30045318603516 133.8777008056641 C 70.61345672607422 130.8471984863281 75.35776519775391 127.2818603515625 79.40158081054688 123.2806777954102 C 84.44088745117188 118.2944946289063 88.40184020996094 112.6110382080078 91.17440032958984 106.3881683349609 C 93.96243286132813 100.1305541992188 96.02587127685547 92.26380920410156 97.30736541748047 83.00642395019531 C 98.33853149414063 75.55728149414063 98.86687469482422 67.20464324951172 98.87770843505859 58.18054962158203 C 98.89292144775391 45.51012420654297 97.86831665039063 35.03008270263672 97.49610137939453 31.64572906494141 C 94.49448394775391 31.43412017822266 86.27143859863281 30.67866516113281 77.14305114746094 28.33080291748047 C 63.24084091186523 24.75511169433594 53.78073883056641 19.24667358398438 48.9684944152832 11.93594360351563 M 48.88507461547852 9 C 58.68012619018555 28.50684356689453 98.75222015380859 30.31974792480469 98.75222015380859 30.31974792480469 C 98.75222015380859 30.31974792480469 104.9199829101563 78.97691345214844 92.45321655273438 106.9579315185547 C 79.98643493652344 134.93896484375 48.88507461547852 142.2438659667969 48.88507461547852 142.2438659667969 C 48.88507461547852 142.2438659667969 18.57112884521484 134.93896484375 6.366798400878906 106.9579315185547 C -5.8375244140625 78.97691345214844 0.06780242919921875 30.31974792480469 0.06780242919921875 30.31974792480469 C 0.06780242919921875 30.31974792480469 40.98672866821289 27.84762573242188 48.88507461547852 9 Z"/></g><path class="e" d="M235.263,150.77h-6.831v-9.108a13.662,13.662,0,1,0-27.324,0v9.108h-6.831A2.284,2.284,0,0,0,192,153.047v27.324a2.284,2.284,0,0,0,2.277,2.277h40.986a2.284,2.284,0,0,0,2.277-2.277V153.047A2.284,2.284,0,0,0,235.263,150.77ZM214.77,171.263a4.554,4.554,0,1,1,4.554-4.554A4.567,4.567,0,0,1,214.77,171.263Zm9.108-20.493H205.662v-9.108a9.108,9.108,0,1,1,18.216,0Z" transform="translate(-163.992 -90.891)"/></g><g transform="translate(437.145 339.165)"><g class="f" transform="translate(0.652 0)"><path class="g" d="M604.921,639.807,602.8,670.385h0a23.451,23.451,0,0,1-3.6,5.08c-.155-.055-.31-.114-.46-.184-.284-.1-.564-.21-.829-.32-4.292-1.883-7.552-5.39-8.5-9.365-.858-3.482-.085-7.243-1.743-10.515-2.023-4.03-7.523-6.558-8.2-11.1-.634-4.255,3.2-8.157,2.579-12.327-.737-4.716-6.5-7.512-7.582-12.117-.674-2.863-.07-6.149-.324-9.1a59.827,59.827,0,0,0-1.654-9.77c8.536-.619,17.223,4.086,19.99,10.824,2.258,5.526.9,11.963,4.421,16.988,1.923,2.723,5.125,4.76,6.782,7.608a10.076,10.076,0,0,1,1.105,2.852.477.477,0,0,0,.026.2,1.385,1.385,0,0,0,.044.28C604.9,639.667,604.921,639.807,604.921,639.807Z" transform="translate(-572.49 -600.612)"/><path class="h" d="M660.465,706.3h0s-.026-.125-.055-.369a2.17,2.17,0,0,1,.055.295A.088.088,0,0,1,660.465,706.3Z" transform="translate(-628.019 -667.129)"/></g><path class="g" d="M685.124,646.581c-1.105,3.972-7.158,6.385-7.888,10.456-.645,3.611,3.342,6.978,2.682,10.643-.7,3.931-6.433,6.1-8.536,9.579-1.713,2.822-.914,6.068-1.8,9.07-1.024,3.412-4.421,6.458-8.9,8.072-.28.1-.545.2-.829.28h0c-.155.044-.324.1-.479.14a23.514,23.514,0,0,1-4.576-5.685h0l2.107-30.6h0a40.7,40.7,0,0,0,4.83-4.215,11.9,11.9,0,0,0,2.5-5.4h.044v-.21c.615-3.017.671-6.178,2.089-9.041,2.877-5.825,11.907-9.885,20.793-9.35a45.162,45.162,0,0,0-1.713,8.437C685.194,641.287,685.821,644.124,685.124,646.581Z" transform="translate(-623.824 -619.345)"/><path class="h" d="M680.494,680.25v.21h-.044Z" transform="translate(-640.024 -650.91)"/><path class="h" d="M654.195,644.78l-.044.21a11.9,11.9,0,0,1-2.5,5.4,40.7,40.7,0,0,1-4.83,4.215.088.088,0,0,0,0-.059,2.166,2.166,0,0,0-.055-.295,2.735,2.735,0,0,0-.044-.28.546.546,0,0,0-.026-.2,10.06,10.06,0,0,0-1.105-2.852c-1.658-2.848-4.859-4.885-6.782-7.608,0,0,.869-14.35,8.212-18.716C653.985,620.479,654.195,642.393,654.195,644.78Z" transform="translate(-613.725 -615.44)"/><path class="h" d="M680.494,680.25v.21h-.044Z" transform="translate(-640.024 -650.91)"/><path class="h" d="M660.425,706.284v.085s-.026-.125-.055-.368A2.165,2.165,0,0,1,660.425,706.284Z" transform="translate(-627.341 -667.173)"/><path class="i" d="M655.1,658.522a42.226,42.226,0,0,0,4.848-4.229c3.684-4.344,2.262-9.9,4.624-14.659,2.874-5.817,11.911-9.873,20.793-9.343a44.541,44.541,0,0,0-1.717,8.437c-.265,2.549.369,5.383-.328,7.851-1.131,3.971-7.162,6.381-7.9,10.452-.652,3.607,3.345,6.974,2.686,10.636-.7,3.935-6.429,6.108-8.536,9.579-1.72,2.826-.914,6.064-1.805,9.074-1.08,3.629-4.837,6.834-9.734,8.348-.155.052-.324.107-.483.147a23.559,23.559,0,0,1-4.58-5.688" transform="translate(-622.668 -619.327)"/><path class="i" d="M687.719,642.74c-13.245,14.254-19.474,44.305-21.9,59.823h0c-.2,1.308-.368,2.505-.531,3.585" transform="translate(-630.449 -627.219)"/><path class="i" d="M640.841,838.564l-6.075,35.953a4.211,4.211,0,0,1-4.075,3.6H598.83a4.215,4.215,0,0,1-4.082-3.659l-5.618-35.9Z" transform="translate(-582.348 -750.896)"/><path class="i" d="M636.857,819.573h0a4.233,4.233,0,0,1-4.126,4.016H577.8a4.229,4.229,0,0,1-4.119-3.949h0a4.28,4.28,0,0,1,4.119-4.789H632.73A4.284,4.284,0,0,1,636.857,819.573Z" transform="translate(-572.576 -735.921)"/><path class="i" d="M597.434,675.494c2.358-2.339,5.246-7.556,6.525-11.815,1.054-3.511-.8-7.125-1.227-10.728-.663-5.64,2.137-11.7-.814-16.818-1.647-2.852-4.848-4.878-6.771-7.608-3.54-5.029-2.181-11.461-4.443-16.976-2.767-6.746-11.45-11.45-19.983-10.824a61.049,61.049,0,0,1,1.654,9.77c.254,2.947-.368,6.234.317,9.093,1.079,4.605,6.871,7.394,7.582,12.113.626,4.171-3.209,8.076-2.579,12.323.678,4.554,6.171,7.07,8.2,11.108,1.65,3.275.877,7.033,1.732,10.511C588.7,669.99,592.5,673.81,597.434,675.494Z" transform="translate(-570.72 -600.647)"/><path class="i" d="M584.86,615.16c12.714,16.52,18.7,51.331,21.051,69.3.2,1.558.368,2.988.519,4.266" transform="translate(-579.651 -609.8)"/><path class="i" d="M637,643.308s.873-14.35,8.212-18.712,7.184,20.082,7.184,20.082" transform="translate(-612.581 -615.431)"/><path class="i" d="M658.01,679.09a37.352,37.352,0,0,1,1.131-16.28" transform="translate(-625.583 -639.895)"/></g><g transform="translate(588.32 262.023) rotate(7)"><path class="e" d="M83.363,34.406c-3.207,1.069-15.381,2.972-31.264,9.9S28.285,58.655,27.762,57.8C26.727,56.125,41.6,25.246,49.424,10.671,40.555.574,40.994,1.148,39.963.018S-11.416,50.917,2.4,75.35c14.514,25.666,60.355,4.337,60.355,4.337l2.129,17.33" transform="translate(0 27.693)"/><path class="j" d="M30.618,0c1.233,9.82,2.5,20.379,2.5,20.379S30.2,9.083,22.679.975C13.04,2.276.286,3.664,0,3.759c.2.006,14.573,36.815,25.994,46.487,15.189,13.852,38.091,6.459,41.493,5.88" transform="translate(150.6 118.295) rotate(180)"/><path class="j" d="M1.795,0S7.309,11.6,0,12.5" transform="matrix(0.978, -0.208, 0.208, 0.978, 70.345, 52.588)"/><path class="j" d="M1.945,0S-3.494,12.028,3.819,12.926" transform="matrix(0.978, -0.208, 0.208, 0.978, 87.608, 48.13)"/><g class="b" transform="translate(99.578 51.811) rotate(173)"><path class="l" d="M 20.3431339263916 51.50040054321289 C 15.85679340362549 51.50040054321289 11.60724353790283 49.7106819152832 8.053893089294434 46.32472229003906 C 6.322343349456787 44.67473220825195 4.813493251800537 42.69374084472656 3.569273471832275 40.43679046630859 C 2.310235023498535 38.15297698974609 1.34972083568573 35.63527679443359 0.7139765024185181 32.95275497436523 C 0.6374261975288391 31.34597587585449 0.8943541049957275 30.23021697998047 1.142923474311829 29.15066146850586 C 1.357053399085999 28.22064018249512 1.578483462333679 27.25895118713379 1.578483462333679 26.04392051696777 C 1.578483462333679 24.92331123352051 1.493003368377686 23.61448097229004 1.402493476867676 22.22879028320313 C 1.181943416595459 18.85202980041504 0.931973397731781 15.02473068237305 1.823733448982239 12.59060096740723 C 3.289053440093994 8.581470489501953 5.739123344421387 5.524340629577637 9.106063842773438 3.503640651702881 C 12.20583343505859 1.643280625343323 15.98653316497803 0.7000006437301636 20.3431339263916 0.7000006437301636 C 25.35642433166504 0.7000006437301636 30.0850830078125 2.972510576248169 34.01789474487305 7.2718505859375 C 36.03510284423828 9.472630500793457 37.71272277832031 12.30219078063965 38.86984252929688 15.45515060424805 C 40.10024261474609 18.80776977539063 40.72410202026367 22.38928031921387 40.72410202026367 26.10020065307617 C 40.72410202026367 29.54656028747559 40.17937469482422 32.88853073120117 39.10504531860352 36.03327941894531 C 38.06984329223633 39.06351089477539 36.58948516845703 41.78293228149414 34.70507431030273 44.11598968505859 C 32.82956314086914 46.43804931640625 30.64903259277344 48.25931930541992 28.22406387329102 49.52920150756836 C 25.7263240814209 50.83719253540039 23.07479286193848 51.50040054321289 20.3431339263916 51.50040054321289 Z"/><path class="m" d="M 20.3431339263916 1.400001525878906 C 16.11521339416504 1.400001525878906 12.45571327209473 2.309700012207031 9.466283798217773 4.103839874267578 C 6.240184783935547 6.040012359619141 3.890125274658203 8.976051330566406 2.481014251708984 12.83140182495117 C 1.640125274658203 15.12668228149414 1.884971618652344 18.87559127807617 2.101001739501953 22.18319129943848 C 2.192264556884766 23.58057975769043 2.278472900390625 24.90048027038574 2.278472900390625 26.04392051696777 C 2.278472900390625 27.33849143981934 2.0479736328125 28.33959007263184 1.825061798095703 29.30772018432617 C 1.579826354980469 30.37286567687988 1.347816467285156 31.38049125671387 1.410285949707031 32.85511016845703 C 2.031478881835938 35.45211029052734 2.96380615234375 37.88859558105469 4.182285308837891 40.09885025024414 C 5.391963958740234 42.29314041137695 6.857032775878906 44.21731948852539 8.536792755126953 45.81795120239258 C 11.95747375488281 49.07749938964844 16.04004287719727 50.80039978027344 20.3431339263916 50.80039978027344 C 31.19525337219238 50.80039978027344 40.02410507202148 39.71994018554688 40.02410507202148 26.10020065307617 C 40.02410507202148 22.47182083129883 39.41466522216797 18.97145080566406 38.21270370483398 15.69631195068359 C 37.08675384521484 12.62831115722656 35.45793151855469 9.878910064697266 33.50139236450195 7.744319915771484 C 29.70475387573242 3.593830108642578 25.15470314025879 1.400001525878906 20.3431339263916 1.400001525878906 M 20.3431339263916 0 C 25.6871337890625 0 30.56670379638672 2.461898803710938 34.53439331054688 6.799381256103516 C 38.66169357299805 11.30226135253906 41.42410278320313 18.30181884765625 41.42410278320313 26.10020065307617 C 41.42410278320313 40.51493835449219 31.98583221435547 52.20040130615234 20.3431339263916 52.20040130615234 C 10.74955368041992 52.20040130615234 2.652725219726563 44.26625061035156 0.01805496215820313 33.05150985717773 C -0.1473770141601563 29.90499114990234 0.8784751892089844 28.58090972900391 0.8784751892089844 26.04392051696777 C 0.8784751892089844 22.2096004486084 -0.1543159484863281 15.95495223999023 1.166454315185547 12.34980010986328 C 4.355003356933594 3.625881195068359 11.79739379882813 0 20.3431339263916 0 Z"/></g><path d="M0,18.045c.181-.274.632,0,2.561,5.239,0,0,10.1-.007,15.584-2.13S24.565,9.791,24.565,9.791s8.226,3.528,8.572.978a9.172,9.172,0,0,0-1.122-6.162C30.784,2.381,30.943.852,32.56.169s4.089.869,5.921,1.707c1.863,3.9,2.4,10.369,1.04,16.619C37.5,27.807,30.562,37.348,21.211,37.1,7.146,38.2.919,23.194,0,18.045Z" transform="translate(97.605 37.817) rotate(173)"/><g transform="translate(60.346 7.081) rotate(68)"><path class="k" d="M.673,2.264s-1.824,8.77.533,12.753c0,0,1.672,3.4,4.256-2.09,0,0-1.087,7.988,3.079,9.553,0,0,2.995.76,2.189-6.946,0,0,1.688,8.132,3.6,7.737,0,0,3.625-.631,2.105-8.14,0,0,1.422,6.977,3.671,5.229S20.039,9.8,18.61,7.1,14.924,0,14.924,0Z" transform="matrix(-0.982, 0.191, -0.191, -0.982, 25.983, 23.742)"/><path d="M14.954,24.794a1.54,1.54,0,0,1-.874-.281A7.026,7.026,0,0,1,12.119,21.3a3.962,3.962,0,0,1-1.148,2.151,2.129,2.129,0,0,1-1.854.517l-.084-.023c-2.934-1.1-3.61-4.765-3.687-7.425a2.693,2.693,0,0,1-1.953,1.049H3.378A2.536,2.536,0,0,1,1.288,16.1C-1.159,11.964.619,3.224.695,2.86a.762.762,0,0,1,.623-.593L15.569.01a.75.75,0,0,1,.79.4S18.617,4.806,20.046,7.5c1.376,2.6,4.09,12.031,1.293,14.212a1.781,1.781,0,0,1-1.778.334,2.97,2.97,0,0,1-1.345-1.224,5.838,5.838,0,0,1-.912,2.44,3.42,3.42,0,0,1-2.075,1.512C15.144,24.779,15.053,24.794,14.954,24.794Zm-3.466-9.257a.748.748,0,0,1,.737.6c.745,3.572,2.045,6.977,2.744,7.144.965-.22,2.554-2.014,1.489-7.243h0a.756.756,0,0,1,1.482-.3c.441,2.143,1.406,4.621,2.143,4.895.046.015.129.046.327-.106,1.041-.813.79-7.6-1.7-12.312-1.14-2.158-2.812-5.4-3.443-6.62L2.078,3.688c-.334,1.892-1.33,8.55.54,11.7.091.182.418.669.76.669h.008c.152,0,.958-.144,2.151-2.7a.754.754,0,0,1,1.429.426c-.274,2.044-.357,7.562,2.531,8.725a.715.715,0,0,0,.509-.228c.365-.342,1.17-1.611.722-5.913a.763.763,0,0,1,.638-.828A.653.653,0,0,1,11.488,15.537Z" transform="matrix(-0.982, 0.191, -0.191, -0.982, 26.872, 24.338)"/></g></g><path d="M16.16-28.392q6.2,0,9.753,3.488A11.675,11.675,0,0,1,29.4-15.99a12.145,12.145,0,0,1-2.39,7.3q-1.033,1.163-5.1,4.974A13.8,13.8,0,0,0,18.615-.036a9.271,9.271,0,0,0-1.356,4.974V6.81h-3.94V4.937A11.392,11.392,0,0,1,14.481-.23q1.421-3.1,5.942-7.04a34.927,34.927,0,0,0,3.036-3.1,9.186,9.186,0,0,0,2-5.49,9.179,9.179,0,0,0-2.39-6.588Q20.617-24.9,15.966-24.9q-5.167,0-7.751,3.423a13.621,13.621,0,0,0-2.39,8.074H1.95A15.933,15.933,0,0,1,5.567-24Q9.313-28.392,16.16-28.392Zm-.84,40.564a3.148,3.148,0,0,1,2.325.9,2.914,2.914,0,0,1,.969,2.325,3.171,3.171,0,0,1-.969,2.325,3.44,3.44,0,0,1-2.325.9,2.964,2.964,0,0,1-2.261-.969A3.008,3.008,0,0,1,12.026,15.4a2.831,2.831,0,0,1,1.033-2.325A2.936,2.936,0,0,1,15.32,12.172Z" transform="translate(708.397 276.33)"/><g class="e" transform="translate(681.21 440.093)"><circle class="l" cx="4.78" cy="4.78" r="4.78"/><circle class="n" cx="4.78" cy="4.78" r="4.08"/></g></g></svg>